<svg width="88" height="88" viewBox="0 0 88 88" fill="none" xmlns="http://www.w3.org/2000/svg">
<g clip-path="url(#clip0_10_8801)">
<path d="M0.0109162 81.2514L1.2208 60.067C1.34615 57.9066 3.97301 56.9028 5.49899 58.4358L19.2219 72.1732C20.2029 73.1552 20.2029 74.7428 19.2219 75.7248C18.2409 76.7068 16.655 76.7068 15.674 75.7248L5.90774 65.9483L5.0194 81.5351C4.97035 82.3644 5.67339 83.0572 6.51268 82.959C14.1535 82.0916 27.8601 79.9857 34.1983 78.8727L82.5174 30.4973C83.1223 29.8917 83.1223 28.9042 82.5174 28.2932L59.7149 5.46668C59.1099 4.8611 58.1235 4.8611 57.5131 5.46668L16.7912 46.2533C16.1863 46.8589 16.1863 47.8463 16.7912 48.4574L32.1437 63.826C32.7486 64.4316 33.7351 64.4316 34.3455 63.826L62.9085 35.2328C64.5054 33.6343 64.5054 31.032 62.9085 29.4334L58.2652 24.7852C56.6684 23.1867 54.0688 23.1867 52.4719 24.7852L34.3237 42.9526C33.3427 43.9346 31.7568 43.9346 30.7758 42.9526C29.7948 41.9706 29.7948 40.383 30.7758 39.401L48.9186 21.239C52.4719 17.6819 58.2543 17.6819 61.8077 21.239L66.451 25.8873C70.0043 29.4444 70.0043 35.2328 66.451 38.7899L37.8879 67.3831C35.3265 69.9473 31.1518 69.9473 28.5903 67.3831L13.2433 52.009C10.6819 49.4449 10.6819 45.2658 13.2433 42.7016L53.9761 1.92595C56.5376 -0.638219 60.7122 -0.638219 63.2737 1.92595L86.0762 24.7525C88.6377 27.3166 88.6377 31.4957 86.0762 34.0599L37.1958 82.9918C36.8361 83.3519 36.3728 83.5974 35.866 83.6901C29.9419 84.7594 15.4397 87.0126 7.08492 87.9619C3.15552 88.4038 -0.212531 85.2013 0.0109162 81.2514Z" fill="white"/>
</g>
<defs>
<clipPath id="clip0_10_8801">
<rect width="88" height="88" fill="white"/>
</clipPath>
</defs>
</svg>
