<svg width="268" height="251" viewBox="0 0 268 251" fill="none" xmlns="http://www.w3.org/2000/svg">
<g opacity="0.2" clip-path="url(#clip0_10_8803)">
<path d="M0.039926 297.306L4.467 219.791C4.92566 211.885 14.5376 208.212 20.1213 213.822L70.3347 264.088C73.9242 267.681 73.9242 273.491 70.3347 277.084C66.7452 280.677 60.9421 280.677 57.3526 277.084L21.6169 241.311L18.3664 298.344C18.1869 301.379 20.7594 303.914 23.8305 303.555C51.7889 300.381 101.942 292.675 125.135 288.602L301.939 111.592C304.152 109.376 304.152 105.763 301.939 103.527L218.502 20.003C216.289 17.7871 212.679 17.7871 210.446 20.003L61.4407 169.245C59.2271 171.461 59.2271 175.074 61.4407 177.31L117.617 233.545C119.83 235.761 123.44 235.761 125.673 233.545L230.188 128.92C236.031 123.071 236.031 113.549 230.188 107.7L213.198 90.6913C207.355 84.8422 197.842 84.8422 192 90.6913L125.593 157.167C122.004 160.761 116.201 160.761 112.611 157.167C109.022 153.574 109.022 147.765 112.611 144.172L178.998 77.7155C192 64.6997 213.158 64.6997 226.16 77.7155L243.15 94.7238C256.152 107.74 256.152 128.92 243.15 141.936L138.635 246.561C129.263 255.943 113.987 255.943 104.615 246.561L48.4586 190.306C39.0859 180.923 39.0859 165.632 48.4586 156.249L197.503 7.04713C206.876 -2.33539 222.152 -2.33539 231.524 7.04713L314.961 90.5715C324.333 99.954 324.333 115.246 314.961 124.628L136.103 303.674C134.787 304.992 133.092 305.89 131.237 306.23C109.56 310.142 56.4951 318.387 25.9244 321.86C11.5463 323.477 -0.777687 311.759 0.039926 297.306Z" fill="white"/>
</g>
<defs>
<clipPath id="clip0_10_8803">
<rect width="322" height="322" fill="white"/>
</clipPath>
</defs>
</svg>
