<svg width="239" height="251" viewBox="0 0 239 251" fill="none" xmlns="http://www.w3.org/2000/svg">
<g opacity="0.2" clip-path="url(#clip0_10_8805)">
<path d="M-82.9601 226.306L-78.533 148.791C-78.0743 140.885 -68.4624 137.212 -62.8787 142.822L-12.6653 193.088C-9.07576 196.681 -9.07576 202.491 -12.6653 206.084C-16.2548 209.677 -22.0579 209.677 -25.6474 206.084L-61.3831 170.311L-64.6336 227.344C-64.8131 230.379 -62.2406 232.914 -59.1695 232.555C-31.2111 229.381 18.9424 221.675 42.1347 217.603L218.939 40.5923C221.152 38.3765 221.152 34.7632 218.939 32.5274L135.502 -50.997C133.289 -53.2129 129.679 -53.2129 127.446 -50.997L-21.5593 98.2449C-23.7729 100.461 -23.7729 104.074 -21.5593 106.31L34.6167 162.545C36.8302 164.761 40.4397 164.761 42.6732 162.545L147.188 57.9201C153.031 52.071 153.031 42.5487 147.188 36.6996L130.198 19.6913C124.355 13.8422 114.842 13.8422 109 19.6913L42.5934 86.1674C39.0039 89.7607 33.2008 89.7607 29.6113 86.1674C26.0218 82.5741 26.0218 76.7649 29.6113 73.1716L95.9975 6.71546C109 -6.30029 130.158 -6.30029 143.16 6.71546L160.15 23.7238C173.152 36.7395 173.152 57.92 160.15 70.9358L55.6353 175.561C46.2627 184.943 30.9873 184.943 21.6146 175.561L-34.5414 119.306C-43.9141 109.923 -43.9141 94.6316 -34.5414 85.2491L114.503 -63.9529C123.876 -73.3354 139.152 -73.3354 148.524 -63.9529L231.961 19.5715C241.333 28.954 241.333 44.2455 231.961 53.628L53.1027 232.674C51.7866 233.992 50.0915 234.89 48.2369 235.23C26.5602 239.142 -26.5049 247.387 -57.0756 250.861C-71.4537 252.478 -83.7777 240.759 -82.9601 226.306Z" fill="white"/>
</g>
<defs>
<clipPath id="clip0_10_8805">
<rect width="322" height="322" fill="white" transform="translate(-83 -71)"/>
</clipPath>
</defs>
</svg>
